<svg width="25" height="25" xmlns="http://www.w3.org/2000/svg">
 <title/>
 <desc/>

 <g>
  <title>background</title>
  <rect fill="none" id="canvas_background" height="402" width="582" y="-1" x="-1"/>
 </g>
 <g>
  <title>Layer 1</title>
  <path fill="#35c0b6" id="Hamburger" d="m0,4c0,-1.10457 0.88976,-2 2.00359,-2l20.99282,0c1.10655,0 2.00359,0.88773 2.00359,2c0,1.10457 -0.88976,2 -2.00359,2l-20.99282,0c-1.10655,0 -2.00359,-0.88773 -2.00359,-2l0,0zm0,8c0,-1.10457 0.88976,-2 2.00359,-2l20.99282,0c1.10655,0 2.00359,0.88773 2.00359,2c0,1.10457 -0.88976,2 -2.00359,2l-20.99282,0c-1.10655,0 -2.00359,-0.88773 -2.00359,-2l0,0zm0,8c0,-1.10457 0.88976,-2 2.00359,-2l20.99282,0c1.10655,0 2.00359,0.88773 2.00359,2c0,1.10457 -0.88976,2 -2.00359,2l-20.99282,0c-1.10655,0 -2.00359,-0.88773 -2.00359,-2l0,0z"/>
 </g>
</svg>